<svg xmlns="http://www.w3.org/2000/svg" xmlns:xlink="http://www.w3.org/1999/xlink" width="1137" zoomAndPan="magnify" viewBox="0 0 852.75 479.999983" height="640" preserveAspectRatio="xMidYMid meet" version="1.0"><defs><g/><clipPath id="8918f1c73d"><path d="M 0 0.0703125 L 852.5 0.0703125 L 852.5 479.929688 L 0 479.929688 Z M 0 0.0703125 " clip-rule="nonzero"/></clipPath><clipPath id="f43431b148"><path d="M 330 144.070312 L 522 144.070312 L 522 336.070312 L 330 336.070312 Z M 330 144.070312 " clip-rule="nonzero"/></clipPath><clipPath id="592c129b11"><path d="M 0 439.992188 L 426.75 439.992188 L 426.75 479.929688 L 0 479.929688 Z M 0 439.992188 " clip-rule="nonzero"/></clipPath></defs><g clip-path="url(#8918f1c73d)"><path fill="#ffffff" d="M 0 0.0703125 L 852.75 0.0703125 L 852.75 487.570312 L 0 487.570312 Z M 0 0.0703125 " fill-opacity="1" fill-rule="nonzero"/><path fill="#ffffff" d="M 0 0.0703125 L 852.75 0.0703125 L 852.75 480.070312 L 0 480.070312 Z M 0 0.0703125 " fill-opacity="1" fill-rule="nonzero"/><path fill="#ffffff" d="M 0 0.0703125 L 852.75 0.0703125 L 852.75 480.070312 L 0 480.070312 Z M 0 0.0703125 " fill-opacity="1" fill-rule="nonzero"/></g><g fill="#000000" fill-opacity="1"><g transform="translate(426.374964, 259.199707)"><g/></g></g><g clip-path="url(#f43431b148)"><path fill="#ff3131" d="M 406.800781 283.269531 L 464.398438 240.070312 L 406.800781 196.871094 Z M 426 144.070312 C 372.960938 144.070312 330 187.03125 330 240.070312 C 330 293.109375 372.960938 336.070312 426 336.070312 C 479.039062 336.070312 522 293.109375 522 240.070312 C 522 187.03125 479.039062 144.070312 426 144.070312 Z M 426 316.871094 C 383.664062 316.871094 349.199219 282.40625 349.199219 240.070312 C 349.199219 197.734375 383.664062 163.269531 426 163.269531 C 468.335938 163.269531 502.800781 197.734375 502.800781 240.070312 C 502.800781 282.40625 468.335938 316.871094 426 316.871094 Z M 426 316.871094 " fill-opacity="1" fill-rule="nonzero"/></g><g clip-path="url(#592c129b11)"><path fill="#ff3131" d="M 0.265625 439.992188 L 426.484375 439.992188 L 426.484375 490.242188 L 0.265625 490.242188 Z M 0.265625 439.992188 " fill-opacity="1" fill-rule="nonzero"/><path fill="#ff3131" d="M 0.265625 439.992188 L 426.484375 439.992188 L 426.484375 490.242188 L 0.265625 490.242188 Z M 0.265625 439.992188 " fill-opacity="1" fill-rule="nonzero"/></g></svg>